<svg width="1456" height="1105" viewBox="0 0 1456 1105" fill="none" xmlns="http://www.w3.org/2000/svg">
<path d="M1175.61 401.217L1030.59 468.451C1046.31 430.658 1063.42 387.243 1063.42 343.755C1063.42 167.159 920.262 24 743.666 24C567.07 24 423.911 167.159 423.911 343.755C423.911 399.433 438.142 451.786 463.164 497.378C474.32 517.705 496.227 552.104 501.7 581.421C507.173 610.739 414.53 661.555 359.804 703.381C305.078 745.208 303.514 781.561 298.042 850.75C292.569 919.939 306.221 1005.63 398.112 1058.32C490.002 1111 794.874 1105.62 891.426 1103.66C1000.1 1101.46 1205.56 1086.39 1290.53 1022.5C1375.5 958.606 1396.86 902.74 1410.93 874.986C1425 847.232 1437.12 796.415 1450.41 720.581C1463.7 644.747 1446.11 522.786 1440.25 497.378C1434.38 471.97 1416.94 439.134 1401.16 423.889C1354.62 378.936 1324.93 381.281 1290.53 378.936C1263.01 377.059 1211.96 384.408 1175.61 401.217Z" fill="#FFD85D"/>
<path d="M454.01 226.876C471.963 230.519 475.51 226.876 497.791 226.876C519.023 226.876 526.717 229.613 537.663 238.994C546.744 246.778 561.312 262.839 570.107 276.911C581.101 294.502 584.18 301.538 590.043 319.91C595.906 338.282 597.861 359.782 595.125 373.072C592.388 386.363 586.916 396.526 578.316 403.171C569.716 409.817 541.963 429.362 516.163 437.18C490.364 444.998 445.802 447.343 420.002 437.18C394.203 427.016 369.725 391.256 357.458 368.381C342.995 341.409 333.614 312.092 336.741 291.375C339.853 270.758 347.686 250.33 363.322 234.694C378.958 219.058 427.038 221.404 454.01 226.876Z" fill="#FF7326"/>
<circle cx="771.029" cy="248.376" r="39.0898" fill="black"/>
<path d="M1181.79 797.664C1173.48 796.93 1166.53 794.484 1159.99 789.988C1155.27 786.745 1149.72 780.316 1146.97 774.885L1146 772.984L1146.82 772.46C1147.28 772.173 1152.28 769.146 1157.94 765.734L1168.24 759.531L1169.59 761.791C1175.24 771.268 1180.27 774.29 1188.77 773.323C1195.09 772.605 1198.19 769.852 1199.93 763.421C1200.49 761.345 1200.56 756.754 1200.67 712.384L1200.79 663.628H1214.38H1227.97L1228.08 708.564C1228.2 758.811 1228.06 763.83 1226.35 770.582C1222.21 786.907 1210.61 796.053 1191.95 797.699C1187.35 798.105 1186.75 798.103 1181.79 797.664ZM1286.79 797.673C1270.02 796.297 1256.13 789.078 1247.29 777.149C1245.09 774.184 1242.82 770.235 1243.13 769.929C1243.4 769.664 1264.22 757.691 1264.78 757.476C1265.11 757.352 1265.85 758.16 1266.88 759.758C1268.92 762.897 1274.08 768.05 1276.8 769.638C1281.54 772.413 1286.41 773.698 1292.17 773.687C1300.34 773.672 1306.55 770.763 1309.41 765.612C1310.4 763.844 1310.48 763.392 1310.48 760.049C1310.48 756.914 1310.36 756.184 1309.61 754.773C1307 749.871 1303.46 747.593 1288.4 741.133C1274.37 735.118 1268.35 731.68 1262.89 726.557C1256.89 720.936 1253.6 715.09 1251.82 706.927C1251.53 705.604 1251.35 702.234 1251.34 698.377C1251.34 692.852 1251.45 691.6 1252.19 688.916C1257.3 670.181 1275.22 659.835 1298.14 662.382C1311.03 663.814 1320.68 669.595 1327.74 680.117C1328.99 681.981 1330.01 683.619 1330.01 683.755C1330 684.02 1309.7 697.031 1309.02 697.207C1308.8 697.263 1308.24 696.637 1307.78 695.814C1306.47 693.482 1303.54 690.164 1301.67 688.88C1296.77 685.525 1289.56 684.866 1284.49 687.31C1281.88 688.566 1279.42 691.365 1278.67 693.93C1277.33 698.543 1278.57 703.459 1281.88 706.617C1284.92 709.513 1287.31 710.785 1300.08 716.282C1314.13 722.334 1321.67 726.787 1327.33 732.377C1332.44 737.427 1335.3 742.389 1337 749.134C1338.06 753.321 1338.34 762.527 1337.55 767.033C1334.44 784.794 1320.24 795.768 1297.89 797.702C1293.22 798.106 1292.02 798.103 1286.79 797.673Z" fill="black"/>
<path d="M28.2006 56C24.1826 56 20.4374 55.3563 16.965 54.069C13.5422 52.7321 10.5659 50.8506 8.03605 48.4244C5.50618 45.9982 3.52197 43.1512 2.08342 39.8833C0.694473 36.6154 0 33.0256 0 29.1141C0 25.2025 0.694473 21.6127 2.08342 18.3448C3.52197 15.0769 5.50618 12.2299 8.03605 9.80371C10.6155 7.37754 13.6166 5.52078 17.0394 4.23342C20.4622 2.89655 24.2074 2.22812 28.275 2.22812C32.7891 2.22812 36.8567 3.02034 40.4779 4.60478C44.1487 6.1397 47.2242 8.41733 49.7045 11.4377L41.966 18.5676C40.1802 16.5376 38.196 15.0274 36.0134 14.0371C33.8308 12.9973 31.4497 12.4775 28.8703 12.4775C26.4396 12.4775 24.2074 12.8736 22.1735 13.6658C20.1397 14.458 18.3787 15.5968 16.8906 17.0822C15.4024 18.5676 14.2367 20.3254 13.3934 22.3554C12.5997 24.3855 12.2029 26.6384 12.2029 29.1141C12.2029 31.5897 12.5997 33.8426 13.3934 35.8727C14.2367 37.9027 15.4024 39.6605 16.8906 41.1459C18.3787 42.6313 20.1397 43.7701 22.1735 44.5623C24.2074 45.3546 26.4396 45.7507 28.8703 45.7507C31.4497 45.7507 33.8308 45.2555 36.0134 44.2652C38.196 43.2255 40.1802 41.6658 41.966 39.5862L49.7045 46.7162C47.2242 49.7365 44.1487 52.0389 40.4779 53.6233C36.8567 55.2078 32.7643 56 28.2006 56Z" fill="white"/>
<path d="M175.05 55.7029C170.734 55.7029 166.89 54.8364 163.517 53.1034C160.143 51.3209 157.489 48.87 155.555 45.7507C153.67 42.6313 152.727 39.0911 152.727 35.13C152.727 31.1194 153.67 27.5791 155.555 24.5093C157.489 21.3899 160.143 18.9637 163.517 17.2308C166.89 15.4483 170.734 14.557 175.05 14.557C179.266 14.557 182.937 15.4483 186.062 17.2308C189.187 18.9637 191.494 21.4642 192.982 24.7321L183.979 29.5597C182.937 27.6782 181.622 26.2918 180.035 25.4005C178.497 24.5093 176.811 24.0637 174.975 24.0637C172.991 24.0637 171.205 24.5093 169.618 25.4005C168.031 26.2918 166.766 27.5544 165.823 29.1883C164.93 30.8223 164.484 32.8028 164.484 35.13C164.484 37.4571 164.93 39.4377 165.823 41.0716C166.766 42.7056 168.031 43.9682 169.618 44.8594C171.205 45.7507 172.991 46.1963 174.975 46.1963C176.811 46.1963 178.497 45.7754 180.035 44.9337C181.622 44.0424 182.937 42.6313 183.979 40.7003L192.982 45.6021C191.494 48.8205 189.187 51.3209 186.062 53.1034C182.937 54.8364 179.266 55.7029 175.05 55.7029Z" fill="white"/>
<path d="M83.4715 156C79.4534 156 75.7082 155.356 72.2358 154.069C68.8131 152.732 65.8368 150.851 63.3069 148.424C60.777 145.998 58.7928 143.151 57.3542 139.883C55.9653 136.615 55.2709 133.026 55.2709 129.114C55.2709 125.202 55.9653 121.613 57.3542 118.345C58.7928 115.077 60.777 112.23 63.3069 109.804C65.8864 107.378 68.8875 105.521 72.3103 104.233C75.733 102.897 79.4782 102.228 83.5458 102.228C88.0599 102.228 92.1275 103.02 95.7487 104.605C99.4195 106.14 102.495 108.417 104.975 111.438L97.2369 118.568C95.4511 116.538 93.4669 115.027 91.2843 114.037C89.1016 112.997 86.7206 112.477 84.1411 112.477C81.7105 112.477 79.4782 112.874 77.4444 113.666C75.4106 114.458 73.6496 115.597 72.1615 117.082C70.6733 118.568 69.5076 120.325 68.6643 122.355C67.8706 124.386 67.4738 126.638 67.4738 129.114C67.4738 131.59 67.8706 133.843 68.6643 135.873C69.5076 137.903 70.6733 139.66 72.1615 141.146C73.6496 142.631 75.4106 143.77 77.4444 144.562C79.4782 145.355 81.7105 145.751 84.1411 145.751C86.7206 145.751 89.1016 145.256 91.2843 144.265C93.4669 143.225 95.4511 141.666 97.2369 139.586L104.975 146.716C102.495 149.737 99.4195 152.039 95.7487 153.623C92.1275 155.208 88.0352 156 83.4715 156Z" fill="white"/>
<path d="M129.965 155.703C125.699 155.703 121.904 154.812 118.58 153.029C115.306 151.247 112.702 148.821 110.768 145.751C108.883 142.631 107.94 139.091 107.94 135.13C107.94 131.119 108.883 127.579 110.768 124.509C112.702 121.39 115.306 118.964 118.58 117.231C121.904 115.448 125.699 114.557 129.965 114.557C134.181 114.557 137.951 115.448 141.275 117.231C144.598 118.964 147.203 121.365 149.088 124.435C150.973 127.505 151.915 131.07 151.915 135.13C151.915 139.091 150.973 142.631 149.088 145.751C147.203 148.821 144.598 151.247 141.275 153.029C137.951 154.812 134.181 155.703 129.965 155.703ZM129.965 146.196C131.899 146.196 133.636 145.751 135.173 144.859C136.711 143.968 137.926 142.706 138.819 141.072C139.712 139.388 140.159 137.408 140.159 135.13C140.159 132.803 139.712 130.822 138.819 129.188C137.926 127.554 136.711 126.292 135.173 125.401C133.636 124.509 131.899 124.064 129.965 124.064C128.03 124.064 126.294 124.509 124.756 125.401C123.218 126.292 121.978 127.554 121.036 129.188C120.143 130.822 119.696 132.803 119.696 135.13C119.696 137.408 120.143 139.388 121.036 141.072C121.978 142.706 123.218 143.968 124.756 144.859C126.294 145.751 128.03 146.196 129.965 146.196Z" fill="white"/>
<path d="M224.588 155.703C221.165 155.703 217.866 155.307 214.691 154.515C211.566 153.673 209.086 152.633 207.251 151.395L211.12 143.077C212.955 144.216 215.113 145.156 217.593 145.899C220.123 146.592 222.603 146.939 225.034 146.939C227.713 146.939 229.598 146.617 230.689 145.973C231.83 145.33 232.401 144.439 232.401 143.3C232.401 142.359 231.954 141.666 231.061 141.22C230.218 140.725 229.077 140.354 227.638 140.106C226.2 139.859 224.612 139.611 222.876 139.363C221.19 139.116 219.478 138.794 217.742 138.398C216.006 137.952 214.419 137.309 212.98 136.467C211.541 135.625 210.376 134.486 209.483 133.05C208.64 131.615 208.218 129.758 208.218 127.48C208.218 124.955 208.937 122.727 210.376 120.796C211.864 118.865 213.997 117.355 216.775 116.265C219.553 115.126 222.876 114.557 226.745 114.557C229.474 114.557 232.252 114.854 235.079 115.448C237.907 116.042 240.263 116.909 242.148 118.048L238.279 126.292C236.344 125.153 234.385 124.385 232.401 123.989C230.466 123.544 228.581 123.321 226.745 123.321C224.166 123.321 222.281 123.668 221.091 124.361C219.9 125.054 219.305 125.945 219.305 127.034C219.305 128.025 219.726 128.767 220.57 129.263C221.463 129.758 222.628 130.154 224.067 130.451C225.505 130.748 227.068 131.02 228.755 131.268C230.491 131.466 232.227 131.788 233.963 132.233C235.699 132.679 237.262 133.323 238.651 134.164C240.089 134.957 241.255 136.071 242.148 137.507C243.041 138.893 243.487 140.725 243.487 143.003C243.487 145.478 242.743 147.682 241.255 149.613C239.767 151.494 237.609 152.98 234.782 154.069C232.004 155.158 228.606 155.703 224.588 155.703Z" fill="white"/>
<path d="M269.697 155.703C265.431 155.703 261.637 154.812 258.313 153.029C255.039 151.247 252.435 148.821 250.5 145.751C248.615 142.631 247.673 139.091 247.673 135.13C247.673 131.119 248.615 127.579 250.5 124.509C252.435 121.39 255.039 118.964 258.313 117.231C261.637 115.448 265.431 114.557 269.697 114.557C273.914 114.557 277.684 115.448 281.007 117.231C284.331 118.964 286.935 121.365 288.82 124.435C290.705 127.505 291.648 131.07 291.648 135.13C291.648 139.091 290.705 142.631 288.82 145.751C286.935 148.821 284.331 151.247 281.007 153.029C277.684 154.812 273.914 155.703 269.697 155.703ZM269.697 146.196C271.632 146.196 273.368 145.751 274.906 144.859C276.444 143.968 277.659 142.706 278.552 141.072C279.445 139.388 279.891 137.408 279.891 135.13C279.891 132.803 279.445 130.822 278.552 129.188C277.659 127.554 276.444 126.292 274.906 125.401C273.368 124.509 271.632 124.064 269.697 124.064C267.763 124.064 266.027 124.509 264.489 125.401C262.951 126.292 261.711 127.554 260.768 129.188C259.876 130.822 259.429 132.803 259.429 135.13C259.429 137.408 259.876 139.388 260.768 141.072C261.711 142.706 262.951 143.968 264.489 144.859C266.027 145.751 267.763 146.196 269.697 146.196Z" fill="white"/>
<path d="M299.407 155.109V100H311.014V155.109H299.407Z" fill="white"/>
<path d="M228.02 15.1512H241.86L225.188 32.0686L243.348 55.1087H229.285L216.663 39.464L211.055 44.9674V55.1087H199.447V0H211.055V31.2078L228.02 15.1512Z" fill="white"/>
<path fill-rule="evenodd" clip-rule="evenodd" d="M128.63 55.7029C124.066 55.7029 120.048 54.8117 116.576 53.0292C113.153 51.2467 110.499 48.8205 108.614 45.7507C106.729 42.6313 105.786 39.0911 105.786 35.13C105.786 31.1194 106.704 27.5791 108.54 24.5093C110.425 21.3899 112.979 18.9637 116.204 17.2308C119.428 15.4483 123.074 14.557 127.142 14.557C131.06 14.557 134.582 15.3988 137.707 17.0822C140.882 18.7162 143.387 21.0928 145.223 24.2122C147.058 27.282 147.976 30.9708 147.976 35.2785C147.976 35.7241 147.951 36.244 147.901 36.8382C147.852 37.3828 147.802 37.9027 147.753 38.3979H117.464C117.698 39.4616 118.071 40.4519 118.585 41.3687C119.577 43.0026 120.941 44.2652 122.677 45.1565C124.463 45.9982 126.546 46.4191 128.927 46.4191C131.06 46.4191 132.921 46.0973 134.508 45.4536C136.145 44.8099 137.633 43.8444 138.972 42.557L145.148 49.2414C143.313 51.321 141.006 52.9301 138.228 54.069C135.45 55.1583 132.251 55.7029 128.63 55.7029ZM132.424 24.6578C133.913 25.4996 135.078 26.6879 135.922 28.2228C136.481 29.2416 136.855 30.3805 137.044 31.6393H117.33C117.523 30.4015 117.892 29.2875 118.436 28.2971C119.279 26.7126 120.445 25.4996 121.933 24.6578C123.471 23.7666 125.232 23.321 127.216 23.321C129.2 23.321 130.936 23.7666 132.424 24.6578Z" fill="white"/>
<path d="M81.3574 14.557C84.5322 14.557 87.3597 15.2007 89.8399 16.4881C92.3698 17.7259 94.354 19.6569 95.7926 22.2812C97.2311 24.8559 97.9504 28.1733 97.9504 32.2334V55.1087H86.3428V34.0159C86.3428 30.7975 85.6235 28.4209 84.1849 26.8859C82.796 25.351 80.8118 24.5836 78.2323 24.5836C76.3969 24.5836 74.7351 24.9797 73.247 25.7719C71.8084 26.5146 70.6675 27.6782 69.8242 29.2626C69.0305 30.847 68.6337 32.8771 68.6337 35.3528V55.1087H57.0261V0H68.6337V19.3475C69.6673 18.312 70.8578 17.4332 72.2053 16.7109C74.884 15.275 77.9347 14.557 81.3574 14.557Z" fill="white"/>
<path d="M286.01 55.7029C281.298 55.7029 277.627 54.5146 274.998 52.1379C272.369 49.7118 271.054 46.122 271.054 41.3687V24.9549H264.879V16.0424H271.054V6.313H282.662V16.0424H292.633V24.9549H282.662V41.2202C282.662 42.9036 283.109 44.2157 284.001 45.1565C284.894 46.0477 286.11 46.4934 287.647 46.4934C289.483 46.4934 291.045 45.9982 292.335 45.008L295.46 53.1777C294.27 54.0194 292.831 54.6631 291.145 55.1087C289.508 55.5049 287.796 55.7029 286.01 55.7029Z" fill="white"/>
<path d="M326.308 14.557C329.482 14.557 332.31 15.2007 334.79 16.4881C337.32 17.7259 339.304 19.6569 340.743 22.2812C342.181 24.8559 342.9 28.1733 342.9 32.2334V55.1087H331.293V34.0159C331.293 30.7975 330.574 28.4209 329.135 26.8859C327.746 25.351 325.762 24.5836 323.182 24.5836C321.347 24.5836 319.685 24.9797 318.197 25.7719C316.758 26.5146 315.618 27.6782 314.774 29.2626C313.981 30.847 313.584 32.8771 313.584 35.3528V55.1087H301.976V0H313.584V19.3475C314.617 18.312 315.808 17.4331 317.155 16.7109C319.834 15.275 322.885 14.557 326.308 14.557Z" fill="white"/>
<path fill-rule="evenodd" clip-rule="evenodd" d="M373.58 55.7029C369.016 55.7029 364.998 54.8117 361.526 53.0292C358.103 51.2467 355.449 48.8205 353.564 45.7507C351.679 42.6313 350.737 39.0911 350.737 35.13C350.737 31.1194 351.654 27.5791 353.49 24.5093C355.375 21.3899 357.929 18.9637 361.154 17.2308C364.378 15.4483 368.024 14.557 372.092 14.557C376.01 14.557 379.532 15.3988 382.658 17.0822C385.832 18.7162 388.337 21.0928 390.173 24.2122C392.008 27.282 392.926 30.9708 392.926 35.2785C392.926 35.7241 392.901 36.244 392.851 36.8382C392.802 37.3828 392.752 37.9027 392.703 38.3979H362.414C362.648 39.4616 363.021 40.4519 363.535 41.3687C364.527 43.0026 365.891 44.2652 367.627 45.1565C369.413 45.9982 371.496 46.4191 373.877 46.4191C376.01 46.4191 377.871 46.0973 379.458 45.4536C381.095 44.8099 382.583 43.8444 383.922 42.557L390.098 49.2414C388.263 51.321 385.956 52.9301 383.178 54.069C380.4 55.1583 377.201 55.7029 373.58 55.7029ZM377.375 24.6578C378.863 25.4996 380.028 26.6879 380.872 28.2228C381.432 29.2416 381.805 30.3805 381.994 31.6393H362.28C362.473 30.4015 362.842 29.2875 363.386 28.2971C364.229 26.7126 365.395 25.4996 366.883 24.6578C368.421 23.7666 370.182 23.321 372.166 23.321C374.15 23.321 375.886 23.7666 377.375 24.6578Z" fill="white"/>
<path d="M184.005 114.557C187.18 114.557 190.007 115.201 192.488 116.488C195.018 117.726 197.002 119.657 198.44 122.281C199.879 124.856 200.598 128.173 200.598 132.233V155.109H188.99V134.016C188.99 130.798 188.271 128.421 186.833 126.886C185.444 125.351 183.459 124.584 180.88 124.584C179.045 124.584 177.383 124.98 175.895 125.772C174.456 126.515 173.315 127.678 172.472 129.263C171.678 130.847 171.281 132.877 171.281 135.353V155.109H159.674V115.151H170.761V119.897C171.909 118.62 173.273 117.558 174.853 116.711C177.532 115.275 180.582 114.557 184.005 114.557Z" fill="white"/>
<path fill-rule="evenodd" clip-rule="evenodd" d="M341.654 155.703C337.09 155.703 333.072 154.812 329.6 153.029C326.177 151.247 323.523 148.821 321.638 145.751C319.753 142.631 318.811 139.091 318.811 135.13C318.811 131.119 319.728 127.579 321.564 124.509C323.449 121.39 326.004 118.964 329.228 117.231C332.452 115.448 336.098 114.557 340.166 114.557C344.085 114.557 347.607 115.399 350.732 117.082C353.906 118.716 356.411 121.093 358.247 124.212C360.082 127.282 361 130.971 361 135.279C361 135.724 360.975 136.244 360.926 136.838C360.876 137.383 360.826 137.903 360.777 138.398H330.488C330.722 139.462 331.096 140.452 331.609 141.369C332.601 143.003 333.965 144.265 335.701 145.156C337.487 145.998 339.57 146.419 341.952 146.419C344.085 146.419 345.945 146.097 347.532 145.454C349.169 144.81 350.657 143.844 351.997 142.557L358.173 149.241C356.337 151.321 354.03 152.93 351.253 154.069C348.475 155.158 345.275 155.703 341.654 155.703ZM345.449 124.658C346.937 125.5 348.103 126.688 348.946 128.223C349.506 129.242 349.88 130.38 350.068 131.639H330.354C330.547 130.402 330.916 129.287 331.46 128.297C332.303 126.713 333.469 125.5 334.957 124.658C336.495 123.767 338.256 123.321 340.24 123.321C342.224 123.321 343.961 123.767 345.449 124.658Z" fill="white"/>
</svg>
