<svg width="528" height="290" viewBox="0 0 528 290" fill="none" xmlns="http://www.w3.org/2000/svg">
<rect width="528" height="290" rx="15" fill="#2C3043"/>
<rect x="272" y="62" width="235" height="39" rx="15" fill="#34DABA"/>
<rect x="272" y="113" width="235" height="153" rx="15" fill="#01A787"/>
<rect x="283" y="123" width="214" height="67" rx="15" fill="#34DABA"/>
<rect x="283" y="198" width="100" height="56" rx="15" fill="#1BC1A1"/>
<rect x="23" y="62" width="235" height="39" rx="15" fill="#FDA061"/>
<rect x="397" y="198" width="100" height="56" rx="15" fill="#FDA061"/>
<rect x="23" y="113" width="235" height="153" rx="15" fill="#FC6057"/>
<path d="M214.992 38V21.2H218.88V34.832H227.304V38H214.992ZM237.226 38V35.48L236.986 34.928V30.416C236.986 29.616 236.738 28.992 236.242 28.544C235.762 28.096 235.018 27.872 234.01 27.872C233.322 27.872 232.642 27.984 231.97 28.208C231.314 28.416 230.754 28.704 230.29 29.072L228.946 26.456C229.65 25.96 230.498 25.576 231.49 25.304C232.482 25.032 233.49 24.896 234.514 24.896C236.482 24.896 238.01 25.36 239.098 26.288C240.186 27.216 240.73 28.664 240.73 30.632V38H237.226ZM233.29 38.192C232.282 38.192 231.418 38.024 230.698 37.688C229.978 37.336 229.426 36.864 229.042 36.272C228.658 35.68 228.466 35.016 228.466 34.28C228.466 33.512 228.65 32.84 229.018 32.264C229.402 31.688 230.002 31.24 230.818 30.92C231.634 30.584 232.698 30.416 234.01 30.416H237.442V32.6H234.418C233.538 32.6 232.93 32.744 232.594 33.032C232.274 33.32 232.114 33.68 232.114 34.112C232.114 34.592 232.298 34.976 232.666 35.264C233.05 35.536 233.57 35.672 234.226 35.672C234.85 35.672 235.41 35.528 235.906 35.24C236.402 34.936 236.762 34.496 236.986 33.92L237.562 35.648C237.29 36.48 236.794 37.112 236.074 37.544C235.354 37.976 234.426 38.192 233.29 38.192ZM245.516 42.848C244.844 42.848 244.18 42.744 243.524 42.536C242.868 42.328 242.332 42.04 241.916 41.672L243.284 39.008C243.572 39.264 243.9 39.464 244.268 39.608C244.652 39.752 245.028 39.824 245.396 39.824C245.924 39.824 246.34 39.696 246.644 39.44C246.964 39.2 247.252 38.792 247.508 38.216L248.18 36.632L248.468 36.224L253.1 25.088H256.7L250.868 38.792C250.452 39.832 249.972 40.648 249.428 41.24C248.9 41.832 248.308 42.248 247.652 42.488C247.012 42.728 246.3 42.848 245.516 42.848ZM247.724 38.504L241.964 25.088H245.828L250.292 35.888L247.724 38.504ZM264.02 38.192C262.644 38.192 261.42 37.904 260.348 37.328C259.292 36.752 258.452 35.968 257.828 34.976C257.22 33.968 256.916 32.824 256.916 31.544C256.916 30.248 257.22 29.104 257.828 28.112C258.452 27.104 259.292 26.32 260.348 25.76C261.42 25.184 262.644 24.896 264.02 24.896C265.38 24.896 266.596 25.184 267.668 25.76C268.74 26.32 269.58 27.096 270.188 28.088C270.796 29.08 271.1 30.232 271.1 31.544C271.1 32.824 270.796 33.968 270.188 34.976C269.58 35.968 268.74 36.752 267.668 37.328C266.596 37.904 265.38 38.192 264.02 38.192ZM264.02 35.12C264.644 35.12 265.204 34.976 265.7 34.688C266.196 34.4 266.588 33.992 266.876 33.464C267.164 32.92 267.308 32.28 267.308 31.544C267.308 30.792 267.164 30.152 266.876 29.624C266.588 29.096 266.196 28.688 265.7 28.4C265.204 28.112 264.644 27.968 264.02 27.968C263.396 27.968 262.836 28.112 262.34 28.4C261.844 28.688 261.444 29.096 261.14 29.624C260.852 30.152 260.708 30.792 260.708 31.544C260.708 32.28 260.852 32.92 261.14 33.464C261.444 33.992 261.844 34.4 262.34 34.688C262.836 34.976 263.396 35.12 264.02 35.12ZM279.051 38.192C277.979 38.192 277.019 37.984 276.171 37.568C275.339 37.152 274.691 36.52 274.227 35.672C273.763 34.808 273.531 33.712 273.531 32.384V25.088H277.275V31.832C277.275 32.904 277.499 33.696 277.947 34.208C278.411 34.704 279.059 34.952 279.891 34.952C280.467 34.952 280.979 34.832 281.427 34.592C281.875 34.336 282.227 33.952 282.483 33.44C282.739 32.912 282.867 32.256 282.867 31.472V25.088H286.611V38H283.059V34.448L283.707 35.48C283.275 36.376 282.635 37.056 281.787 37.52C280.955 37.968 280.043 38.192 279.051 38.192ZM295.36 38.192C293.84 38.192 292.656 37.808 291.808 37.04C290.96 36.256 290.536 35.096 290.536 33.56V22.232H294.28V33.512C294.28 34.056 294.424 34.48 294.712 34.784C295 35.072 295.392 35.216 295.888 35.216C296.48 35.216 296.984 35.056 297.4 34.736L298.408 37.376C298.024 37.648 297.56 37.856 297.016 38C296.488 38.128 295.936 38.192 295.36 38.192ZM288.544 28.256V25.376H297.496V28.256H288.544ZM306.322 34.472V31.856L314.242 21.2H318.322L310.57 31.856L308.674 31.304H321.898V34.472H306.322ZM315.37 38V34.472L315.49 31.304V28.16H319.162V38H315.37Z" fill="white"/>
</svg>
