<svg width="528" height="290" viewBox="0 0 528 290" fill="none" xmlns="http://www.w3.org/2000/svg">
<rect width="528" height="290" rx="15" fill="#2C3043"/>
<rect x="353" y="168" width="156" height="95" rx="15" fill="#34DABA"/>
<rect x="186" y="168" width="156" height="95" rx="15" fill="#1BC1A1"/>
<rect x="19" y="168" width="156" height="95" rx="15" fill="#01A787"/>
<rect x="353" y="62" width="156" height="95" rx="15" fill="#FDA061"/>
<rect x="186" y="62" width="156" height="95" rx="15" fill="#FD825C"/>
<rect x="19" y="62" width="156" height="95" rx="15" fill="#FC6057"/>
<path d="M214.992 38V21.2H218.88V34.832H227.304V38H214.992ZM237.25 38V35.48L237.01 34.928V30.416C237.01 29.616 236.762 28.992 236.266 28.544C235.786 28.096 235.042 27.872 234.034 27.872C233.346 27.872 232.666 27.984 231.994 28.208C231.338 28.416 230.778 28.704 230.314 29.072L228.97 26.456C229.674 25.96 230.522 25.576 231.514 25.304C232.506 25.032 233.514 24.896 234.538 24.896C236.506 24.896 238.034 25.36 239.122 26.288C240.21 27.216 240.754 28.664 240.754 30.632V38H237.25ZM233.314 38.192C232.306 38.192 231.442 38.024 230.722 37.688C230.002 37.336 229.45 36.864 229.066 36.272C228.682 35.68 228.49 35.016 228.49 34.28C228.49 33.512 228.674 32.84 229.042 32.264C229.426 31.688 230.026 31.24 230.842 30.92C231.658 30.584 232.722 30.416 234.034 30.416H237.466V32.6H234.442C233.562 32.6 232.954 32.744 232.618 33.032C232.298 33.32 232.138 33.68 232.138 34.112C232.138 34.592 232.322 34.976 232.69 35.264C233.074 35.536 233.594 35.672 234.25 35.672C234.874 35.672 235.434 35.528 235.93 35.24C236.426 34.936 236.786 34.496 237.01 33.92L237.586 35.648C237.314 36.48 236.818 37.112 236.098 37.544C235.378 37.976 234.45 38.192 233.314 38.192ZM245.54 42.848C244.868 42.848 244.204 42.744 243.548 42.536C242.892 42.328 242.356 42.04 241.94 41.672L243.308 39.008C243.596 39.264 243.924 39.464 244.292 39.608C244.676 39.752 245.052 39.824 245.42 39.824C245.948 39.824 246.364 39.696 246.668 39.44C246.988 39.2 247.276 38.792 247.532 38.216L248.204 36.632L248.492 36.224L253.124 25.088H256.724L250.892 38.792C250.476 39.832 249.996 40.648 249.452 41.24C248.924 41.832 248.332 42.248 247.676 42.488C247.036 42.728 246.324 42.848 245.54 42.848ZM247.748 38.504L241.988 25.088H245.852L250.316 35.888L247.748 38.504ZM264.044 38.192C262.668 38.192 261.444 37.904 260.372 37.328C259.316 36.752 258.476 35.968 257.852 34.976C257.244 33.968 256.94 32.824 256.94 31.544C256.94 30.248 257.244 29.104 257.852 28.112C258.476 27.104 259.316 26.32 260.372 25.76C261.444 25.184 262.668 24.896 264.044 24.896C265.404 24.896 266.62 25.184 267.692 25.76C268.764 26.32 269.604 27.096 270.212 28.088C270.82 29.08 271.124 30.232 271.124 31.544C271.124 32.824 270.82 33.968 270.212 34.976C269.604 35.968 268.764 36.752 267.692 37.328C266.62 37.904 265.404 38.192 264.044 38.192ZM264.044 35.12C264.668 35.12 265.228 34.976 265.724 34.688C266.22 34.4 266.612 33.992 266.9 33.464C267.188 32.92 267.332 32.28 267.332 31.544C267.332 30.792 267.188 30.152 266.9 29.624C266.612 29.096 266.22 28.688 265.724 28.4C265.228 28.112 264.668 27.968 264.044 27.968C263.42 27.968 262.86 28.112 262.364 28.4C261.868 28.688 261.468 29.096 261.164 29.624C260.876 30.152 260.732 30.792 260.732 31.544C260.732 32.28 260.876 32.92 261.164 33.464C261.468 33.992 261.868 34.4 262.364 34.688C262.86 34.976 263.42 35.12 264.044 35.12ZM279.074 38.192C278.002 38.192 277.042 37.984 276.194 37.568C275.362 37.152 274.714 36.52 274.25 35.672C273.786 34.808 273.554 33.712 273.554 32.384V25.088H277.298V31.832C277.298 32.904 277.522 33.696 277.97 34.208C278.434 34.704 279.082 34.952 279.914 34.952C280.49 34.952 281.002 34.832 281.45 34.592C281.898 34.336 282.25 33.952 282.506 33.44C282.762 32.912 282.89 32.256 282.89 31.472V25.088H286.634V38H283.082V34.448L283.73 35.48C283.298 36.376 282.658 37.056 281.81 37.52C280.978 37.968 280.066 38.192 279.074 38.192ZM295.383 38.192C293.863 38.192 292.679 37.808 291.831 37.04C290.983 36.256 290.559 35.096 290.559 33.56V22.232H294.303V33.512C294.303 34.056 294.447 34.48 294.735 34.784C295.023 35.072 295.415 35.216 295.911 35.216C296.503 35.216 297.007 35.056 297.423 34.736L298.431 37.376C298.047 37.648 297.583 37.856 297.039 38C296.511 38.128 295.959 38.192 295.383 38.192ZM288.567 28.256V25.376H297.519V28.256H288.567ZM309.13 38V22.64L310.81 24.32H305.77V21.2H313.018V38H309.13Z" fill="white"/>
</svg>
